<svg xmlns="http://www.w3.org/2000/svg" width="186" height="186" fill="none"><rect width="186" height="186" fill="#292929" rx="64"/><path fill="#9DE82B" d="M130.304 40.547a14.415 14.415 0 0 0-10.967-.836l-18.888 6.16a14.395 14.395 0 0 0-8.362 7.146L80.735 75.285l71.959-23.432-22.39-11.306ZM58.86 118.166c10.273-3.318 15.844-14.293 12.522-24.503l-8.767-26.65a14.387 14.387 0 0 0-7.193-8.35L33 47.36l23.56 71.571 2.3-.766Zm-3.16 27.292a14.413 14.413 0 0 0 10.957.831l18.895-6.163a14.396 14.396 0 0 0 8.36-7.145l11.354-22.268-72.01 23.432L55.7 145.458Zm71.44-77.626c-10.273 3.318-15.844 14.294-12.522 24.503l8.767 26.65a14.388 14.388 0 0 0 7.193 8.351L153 138.637l-23.56-71.571-2.3.766Z"/><script xmlns=""/></svg>
