<?xml version="1.0" encoding="UTF-8"?>
<svg id="Layer_1" xmlns="http://www.w3.org/2000/svg" version="1.1" viewBox="0 0 235 212">
  <!-- Generator: Adobe Illustrator 29.1.0, SVG Export Plug-In . SVG Version: 2.1.0 Build 142)  -->
  <defs>
    <style>
      .st0 {
        fill: #9de82b;
      }
    </style>
  </defs>
  <path class="st0" d="M190.5,3.3c-6.7-3.4-14.4-4-21.5-1.6l-37,12.1c-7.1,2.3-13,7.3-16.4,14l-22.2,43.6L234.3,25.4,190.5,3.3Z"/>
  <path class="st0" d="M50.7,155.3c20.1-6.5,31-28,24.5-48l-17.2-52.2c-2.3-7.1-7.4-13-14.1-16.4L.1,16.6l46.1,140.2,4.5-1.5Z"/>
  <path class="st0" d="M44.5,208.8c6.7,3.4,14.4,3.9,21.4,1.6l37-12.1c7.1-2.3,13-7.3,16.4-14l22.2-43.6L.6,186.6l43.9,22.2Z"/>
  <path class="st0" d="M188.8,55.2l-4.5,1.5c-20.1,6.5-31,28-24.5,48l17.2,52.2c2.3,7.1,7.4,13,14.1,16.4l43.9,22.1-46.1-140.2Z"/>
</svg>